#N canvas 0 0 1362 696 10;
#X declare -lib mrpeach;
#X obj 38 10 import mrpeach;
#X obj 36 40 udpreceive 57120;
#X obj 36 67 unpackOSC;
#X obj 36 96 routeOSC /minibee/data;
#X obj 36 307 packOSC;
#X msg 36 208 /data \$1 \$2 \$3;
#X obj 36 336 udpsend;
#X msg 95 306 disconnect \, connect 127.0.0.1 9005;
#X obj 346 90 unpackOSC;
#X obj 346 63 udpreceive 9006;
#X floatatom 346 213 5 0 0 0 - - -;
#X obj 437 212 tgl 15 0 empty empty empty 17 7 0 10 -262144 -1 -1 0
1;
#X obj 575 211 tgl 15 0 empty empty empty 17 7 0 10 -262144 -1 -1 0
1;
#X msg 198 250 /clear;
#X obj 346 119 routeOSC /OSCGestureClassifier;
#X obj 346 151 routeOSC /phase /distance /repetition /interval /index
/detected /learned;
#X obj 325 333 timeroll;
#N canvas 356 96 450 421 energy 0;
#X obj 58 269 expr sqrt($f1*$f1 + $f2*$f2 + $f3*$f3);
#X obj 58 170 variance 10;
#X obj 113 196 variance 10;
#X obj 169 221 variance 10;
#X obj 58 98 expr $f1 * 50 - 25 \; $f2 * 50 - 25 \; $f3 * 50 - 25;
#X obj 67 46 inlet;
#X obj 57 330 outlet;
#X connect 0 0 6 0;
#X connect 1 0 0 0;
#X connect 2 0 0 1;
#X connect 3 0 0 2;
#X connect 4 0 1 0;
#X connect 4 1 2 0;
#X connect 4 2 3 0;
#X connect 5 0 4 0;
#X restore 17 372 pd energy;
#X obj 20 398 hsl 128 15 0 1 0 0 empty empty empty -2 -8 0 10 -262144
-1 -1 247 1;
#X obj 325 239 gate;
#X obj 508 257 gate;
#X obj 17 422 > 0.08;
#X obj 17 448 s gate;
#X obj 325 190 r gate;
#X obj 508 232 r gate;
#X obj 49 154 prepend set;
#X obj 508 306 s gest;
#X obj 447 496 r gest;
#X obj 437 523 change;
#X obj 437 256 select 0;
#X obj 255 249 r dtw;
#X obj 476 615 s seq;
#X obj 476 587 + 1;
#X obj 437 557 moses 0;
#X obj 621 237 s nrOfGests;
#X msg 198 223 /learn;
#X obj 36 124 route 2;
#X msg 49 175;
#X floatatom 483 211 5 0 0 0 - - -;
#X floatatom 391 211 5 0 0 0 - - -;
#X floatatom 621 208 5 0 0 0 - - -;
#X floatatom 508 283 5 0 0 0 - - -;
#X msg 437 281;
#X connect 1 0 2 0;
#X connect 2 0 3 0;
#X connect 3 0 36 0;
#X connect 4 0 6 0;
#X connect 5 0 4 0;
#X connect 7 0 6 0;
#X connect 8 0 14 0;
#X connect 9 0 8 0;
#X connect 10 0 19 1;
#X connect 11 0 29 0;
#X connect 13 0 4 0;
#X connect 14 0 15 0;
#X connect 15 0 10 0;
#X connect 15 1 39 0;
#X connect 15 2 11 0;
#X connect 15 3 38 0;
#X connect 15 4 20 1;
#X connect 15 5 12 0;
#X connect 15 6 40 0;
#X connect 17 0 18 0;
#X connect 18 0 21 0;
#X connect 19 0 16 0;
#X connect 20 0 41 0;
#X connect 21 0 22 0;
#X connect 23 0 19 0;
#X connect 24 0 20 0;
#X connect 25 0 37 0;
#X connect 27 0 28 0;
#X connect 28 0 33 0;
#X connect 29 0 42 0;
#X connect 30 0 4 0;
#X connect 32 0 31 0;
#X connect 33 1 32 0;
#X connect 35 0 4 0;
#X connect 36 0 17 0;
#X connect 36 0 25 0;
#X connect 36 0 5 0;
#X connect 40 0 34 0;
#X connect 41 0 26 0;
#X connect 42 0 28 0;
